<mxfile host="app.diagrams.net" modified="2023-06-01T14:38:14.826Z" agent="Mozilla/5.0 (Windows NT 10.0; Win64; x64; rv:109.0) Gecko/20100101 Firefox/113.0" etag="iaVj7YojCJ7gnhDvojGS" version="21.3.6" type="github">
  <diagram id="C5RBs43oDa-KdzZeNtuy" name="Page-1">
    <mxGraphModel dx="1434" dy="754" grid="1" gridSize="10" guides="1" tooltips="1" connect="1" arrows="1" fold="1" page="1" pageScale="1" pageWidth="827" pageHeight="1169" math="0" shadow="0">
      <root>
        <mxCell id="WIyWlLk6GJQsqaUBKTNV-0" />
        <mxCell id="WIyWlLk6GJQsqaUBKTNV-1" parent="WIyWlLk6GJQsqaUBKTNV-0" />
        <mxCell id="uDio8G-_guzUlMVyUNGx-0" value="&lt;div&gt;GameManager&lt;/div&gt;&lt;div&gt;controls the turns and phases&lt;br&gt;&lt;/div&gt;&lt;div align=&quot;left&quot;&gt;&lt;ul&gt;&lt;li&gt;Singleton class&lt;/li&gt;&lt;li&gt;Fields for: currentTurn, currentPhase, currentFirstPlayer&lt;br&gt;&lt;/li&gt;&lt;/ul&gt;&lt;/div&gt;&lt;div align=&quot;left&quot;&gt;&lt;ul&gt;&lt;li&gt;NextPhase() checks the currentPhase, then calls the appropriate method to start the next phase&lt;/li&gt;&lt;li&gt;At the start of each phase, queues up the appropriate actions&lt;br&gt;&lt;/li&gt;&lt;/ul&gt;&lt;/div&gt;" style="html=1;whiteSpace=wrap;" vertex="1" parent="WIyWlLk6GJQsqaUBKTNV-1">
          <mxGeometry x="170" y="90" width="380" height="160" as="geometry" />
        </mxCell>
        <mxCell id="uDio8G-_guzUlMVyUNGx-1" value="ActionQueue" style="html=1;whiteSpace=wrap;" vertex="1" parent="WIyWlLk6GJQsqaUBKTNV-1">
          <mxGeometry x="185" y="290" width="350" height="130" as="geometry" />
        </mxCell>
      </root>
    </mxGraphModel>
  </diagram>
</mxfile>
